<svg xmlns="http://www.w3.org/2000/svg" width="19" height="19" viewBox="0 0 19 19"><g><g><path fill="#95a5a6" d="M18.269 18.5H.612l-.064-.683c-.015-.165-.345-4.054 1.571-6.166.802-.883 1.86-1.331 3.145-1.331h.349l.223.268c.977 1.17 2 1.98 3.66 1.98 1.615 0 2.493-.752 3.52-2l.225-.273h.35c1.516 0 2.714.51 3.562 1.516 1.836 2.18 1.245 5.903 1.218 6.06zm-16.37-1.42h15.109c.07-1.049.058-3.116-.963-4.351-.504-.608-1.193-.937-2.104-1.002-1.043 1.231-2.344 2.303-4.513 2.303-2.218 0-3.567-1.106-4.578-2.273-.71.065-1.277.345-1.728.85-1.075 1.208-1.224 3.362-1.224 4.472zm7.737-6.092c-2.626 0-4.468-4.083-4.468-6.292C5.168 2.382 7.172.5 9.636.5c2.462 0 4.466 1.882 4.466 4.196 0 2.21-1.842 6.292-4.466 6.292zM9.6 1.846c-1.717 0-3.115 1.27-3.115 2.83 0 1.757 1.6 5.024 3.115 5.024 1.515 0 3.115-3.267 3.115-5.025 0-1.56-1.397-2.829-3.115-2.829z"/></g></g></svg>