<svg xmlns="http://www.w3.org/2000/svg" width="19" height="19" viewBox="0 0 19 19"><g><g><path fill="#95a5a6" d="M6.213 18.146a.751.751 0 0 1-.643-1.144l1.541-2.555c-3.84-.813-6.61-3.537-6.61-6.67C.5 3.96 4.536.855 9.498.855c4.963 0 9.001 3.105 9.001 6.922 0 2.854-2.212 5.366-5.644 6.422l-6.25 3.836a.76.76 0 0 1-.393.11zM9.5 2.36c-4.133 0-7.495 2.43-7.495 5.416 0 2.663 2.754 4.964 6.408 5.352a.754.754 0 0 1 .564 1.14l-.522.865 3.7-2.27a.74.74 0 0 1 .178-.08c2.834-.843 4.665-2.809 4.665-5.007 0-2.986-3.365-5.416-7.498-5.416zm4.478 5.248H6.454a.744.744 0 0 1-.757-.73c0-.402.34-.729.757-.729h7.523c.418 0 .757.327.757.73 0 .403-.339.73-.757.73zm-2.261 2.283H6.468a.756.756 0 0 1-.76-.753c0-.416.34-.753.76-.753h5.248c.419 0 .76.337.76.753s-.341.753-.76.753z"/></g></g></svg>