<svg xmlns="http://www.w3.org/2000/svg" width="19" height="19" viewBox="0 0 19 19"><g><g><path fill="#95a5a6" d="M6.838 18.5c-.543 0-.965-.145-1.253-.434a.734.734 0 0 1-.205-.656c.023-.132.53-3.408-3.45-7.366C.117 8.24-.2 4.361 2.11 2.064 3.124 1.057 4.537.5 6.088.5c1.549 0 3.053.577 4.024 1.543 3.26 3.242 7.017 3.335 7.435 3.335.197 0 .437.078.576.217 1.145 1.14-.342 4.597-2.067 7.11.133.313.203.653.203 1.003 0 .692-.268 1.343-.757 1.831-.73.731-1.883.938-2.81.563-1.973 1.354-4.409 2.398-5.854 2.398zm-.75-16.522c-1.155 0-2.194.402-2.927 1.131C1.471 4.79 1.681 7.705 2.98 9c3.537 3.52 3.93 6.692 3.913 8.022 1.422-.04 4.746-1.637 6.545-3.427 2.074-2.065 3.64-5.626 3.637-6.76-1.389-.104-4.926-.675-8.014-3.747-.698-.694-1.81-1.11-2.973-1.11z"/></g></g></svg>