<svg xmlns="http://www.w3.org/2000/svg" width="18" height="18" viewBox="0 0 18 18"><g><g><path fill="#95a5a6" d="M0 6.426C-.03 2.914 2.786.033 6.275.003c3.49-.031 6.353 2.802 6.383 6.315.03 3.512-2.785 6.394-6.276 6.423C2.893 12.771.03 9.94.001 6.426zm1.393.031c.024 2.725 2.246 4.923 4.957 4.9 2.71-.023 4.897-2.26 4.873-4.985-.022-2.723-2.247-4.922-4.957-4.898-2.71.023-4.896 2.259-4.873 4.983zm11.646 4.992c.112.057.221.127.317.22l4.281 4.24c.478.471.484 1.243.015 1.724a1.204 1.204 0 0 1-1.712.015l-4.282-4.24a1.24 1.24 0 0 1-.224-.314 6.384 6.384 0 0 0 1.605-1.645zM2.596 5.686C2.583 4.04 3.9 2.692 5.534 2.678a.375.375 0 0 1 .377.373.376.376 0 0 1-.372.38A2.224 2.224 0 0 0 3.344 5.68a.376.376 0 0 1-.37.38.375.375 0 0 1-.378-.373z"/></g></g></svg>