<svg xmlns="http://www.w3.org/2000/svg" width="24" height="24" viewBox="0 0 24 24"><g><g><path fill="#95a5a6" d="M21 24H3c-1.664 0-3-1.346-3-3V3c0-1.654 1.336-3 3-3h18c1.664 0 3 1.346 3 3v18c0 1.654-1.336 3-3 3zM3 2c-.564 0-1 .45-1 1v8h9.021V2zM2 21c0 .55.436 1 1 1h8.021v-9H2zm19 1c.564 0 1-.45 1-1v-8h-8.979v9zm1-19c0-.55-.436-1-1-1h-7.979v9h8.98zM7 9H6V7H4V6h2V4h1v2h2v1H7zm8-2V6h5v1zm0 11v-1h5v1zm3-2h-1v-1h1zm0 4h-1v-1h1zm-9.354-5.353l.708.707L7.207 17.5l2.147 2.146-.708.708L6.5 18.207l-2.146 2.147-.708-.708L5.793 17.5l-2.147-2.146.708-.707L6.5 16.793z"/></g></g></svg>