<svg xmlns="http://www.w3.org/2000/svg" width="24" height="23" viewBox="0 0 24 23"><g><g><path fill="#2ecc71" d="M11.999 22.892C5.693 22.892.563 17.78.563 11.499.563 5.22 5.693.11 12 .11c6.307 0 11.438 5.11 11.438 11.39 0 6.281-5.13 11.393-11.438 11.393zm0-21.008c-5.324 0-9.655 4.314-9.655 9.615 0 2.471.94 4.728 2.484 6.433l2.875-2.794a.496.496 0 0 1 .202-.12 5.445 5.445 0 0 1-1.323-3.564c0-3.01 2.441-5.459 5.444-5.459a5.41 5.41 0 0 1 3.517 1.297.488.488 0 0 1 .115-.176l2.81-2.75a9.641 9.641 0 0 0-6.469-2.482zm0 19.232c5.325 0 9.656-4.314 9.656-9.617 0-2.472-.942-4.73-2.487-6.435l-2.803 2.744a.504.504 0 0 1-.19.117 5.444 5.444 0 0 1 1.293 3.53c0 3.009-2.442 5.458-5.442 5.458a5.41 5.41 0 0 1-3.495-1.276.5.5 0 0 1-.131.218l-2.863 2.783a9.638 9.638 0 0 0 6.462 2.478zm.032-14.254c-2.551 0-4.629 2.082-4.629 4.643 0 2.559 2.078 4.64 4.63 4.64 2.551 0 4.628-2.081 4.628-4.64 0-2.56-2.077-4.643-4.629-4.643zm-.037 7.016c-1.346 0-2.433-1.074-2.433-2.397 0-1.328 1.087-2.402 2.433-2.402 1.344 0 2.433 1.074 2.433 2.402 0 1.323-1.09 2.397-2.433 2.397z"/></g></g></svg>