<svg xmlns="http://www.w3.org/2000/svg" width="24" height="25" viewBox="0 0 24 25"><g><g><path fill="#95a5a6" d="M12 24.5C5.396 24.5.023 19.117.023 12.5S5.396.5 12 .5c6.605 0 11.977 5.383 11.977 12s-5.372 12-11.977 12zm.023-22.042C6.486 2.458 1.981 6.963 1.981 12.5s4.505 10.042 10.042 10.042S22.065 18.037 22.065 12.5 17.56 2.458 12.023 2.458zm0 12.042a2 2 0 0 1-.906-3.783A13.765 13.765 0 0 1 11.024 9c0-2.485.447-4.5 1-4.5.552 0 1 2.015 1 4.5 0 .68-.034 1.248-.094 1.717.354.18.648.464.841.81.224-.018.474-.027.752-.027 1.933 0 3.5.447 3.5 1 0 .553-1.567 1-3.5 1-.278 0-.528-.01-.752-.027a2 2 0 0 1-1.748 1.027z"/></g></g></svg>