<svg xmlns="http://www.w3.org/2000/svg" width="25" height="25" viewBox="0 0 25 25"><g><g><path fill="#95a5a6" d="M24.5 3.072v18.856a2.574 2.574 0 0 1-2.572 2.571H3.072A2.574 2.574 0 0 1 .5 21.93V3.071A2.574 2.574 0 0 1 3.07.501h18.857A2.574 2.574 0 0 1 24.5 3.072zm-1.715 0a.858.858 0 0 0-.857-.857H3.072a.858.858 0 0 0-.857.857v18.856c0 .473.384.857.857.857h18.856a.858.858 0 0 0 .857-.857zm-12 14.57a3.432 3.432 0 0 1-3.428 3.429 3.432 3.432 0 0 1-3.428-3.428 3.432 3.432 0 0 1 3.428-3.429 3.432 3.432 0 0 1 3.429 3.429zm-1.713 0a1.714 1.714 0 1 0-3.429 0 1.714 1.714 0 0 0 3.429 0zm6.856 3.429h-1.714c0-5.671-4.614-10.285-10.285-10.285V9.072c6.617 0 12 5.382 12 12zm4.286 0H18.5c0-8.034-6.537-14.57-14.571-14.57V4.785c8.98 0 16.285 7.306 16.285 16.285z"/></g></g></svg>