<svg xmlns="http://www.w3.org/2000/svg" width="26" height="19" viewBox="0 0 26 19"><g><g><path fill="#95a5a6" d="M15.833 14.772c.2 1.338.798 2.355 1.81 3.367-1.517 0-3.715-.46-5.228-1.235a10.843 10.843 0 0 1-3.594.605C3.95 17.509 0 14.406 0 10.578s3.95-6.931 8.821-6.931c.934 0 1.831.115 2.675.326a5.901 5.901 0 0 0-.344 1.83 9.246 9.246 0 0 0-2.33-.299c-3.84 0-6.965 2.276-6.965 5.074s3.125 5.074 6.964 5.074a8.976 8.976 0 0 0 2.979-.5l.752-.265.71.364c.25.128.534.25.84.36a8.043 8.043 0 0 1-.106-.566l-.136-.908.44-.454a17.618 17.618 0 0 0 2.677-.842c.054.014.109.02.163.033a6.7 6.7 0 0 1-1.307 1.898zM26 5.968c0 2.82-2.91 5.107-6.5 5.107a8 8 0 0 1-2.647-.445c-1.116.571-2.735.91-3.853.91.745-.746 1.187-1.496 1.334-2.482C13.501 8.2 13 7.131 13 5.968c0-2.82 2.91-5.107 6.5-5.107S26 3.148 26 5.968zm-1.857 0c0-1.795-2.078-3.25-4.643-3.25-2.564 0-4.643 1.455-4.643 3.25s2.079 3.25 4.643 3.25c2.565 0 4.643-1.455 4.643-3.25z"/></g></g></svg>