<svg xmlns="http://www.w3.org/2000/svg" width="18" height="19" viewBox="0 0 18 19"><g><g><path fill="#9ba3af" d="M1.32 18.502c-.404 0-.816-.23-1.072-.597-.251-.361-.315-.785-.176-1.164C.254 16.24 2.46 11.787 2.9 10.9l.056-.111L12.61 1.1c.83-.83 2.334-.797 3.204.071l1.512 1.498c.893.894.897 2.186.012 3.074l-9.682 9.733-.111.056S2.346 18.12 1.8 18.39a1.08 1.08 0 0 1-.481.112zm2.701-6.624a763.17 763.17 0 0 0-1.798 3.659c-.29.594.208 1.03.785.743 1.45-.723 3.17-1.58 3.624-1.804l6.892-6.933-2.598-2.598zm12.315-7.163c.296-.3.293-.644-.01-.947l-1.54-1.528c-.31-.31-.823-.344-1.087-.078l-1.734 1.74 2.597 2.597z"/></g></g></svg>