<svg xmlns="http://www.w3.org/2000/svg" width="12" height="16" viewBox="0 0 12 16"><g><g><path fill="#9ba3af" d="M6 11.318a.672.672 0 0 1-.619-.414l-.965-2.329-.446.13v5.837a.685.685 0 0 0 .088.054l1.54-1.142a.668.668 0 0 1 .784-.01l1.621 1.138c.002 0 .004-.002.006-.005V8.7l-.424-.124-.966 2.33a.672.672 0 0 1-.619.413zM1.88 9.315a.67.67 0 0 1-.76-.989l1.287-2.135-2.144-1.4a.67.67 0 0 1 .27-1.224L3.13 3.19 2.94.722A.672.672 0 0 1 3.31.07a.671.671 0 0 1 .741.097l1.95 1.715L7.947.167a.671.671 0 0 1 1.11.554L8.87 3.19l2.597.377a.67.67 0 0 1 .27 1.224l-2.144 1.4 1.288 2.135a.67.67 0 0 1-.761.989l-.772-.225v5.571c0 .777-.864 1.339-1.447 1.339a.676.676 0 0 1-.384-.121l-1.51-1.063-1.416 1.052a.666.666 0 0 1-.4.132c-.55 0-1.497-.509-1.497-1.339V9.077zm2.925-2.22a.67.67 0 0 1 .618.413L6 8.899l.577-1.391a.668.668 0 0 1 .806-.387l1.43.418.033.008-.734-1.219a.67.67 0 0 1 .207-.906l1.203-.783-1.464-.213a.67.67 0 0 1-.572-.714l.112-1.452-1.155 1.016a.669.669 0 0 1-.886 0L4.403 2.261l.111 1.451a.67.67 0 0 1-.57.714l-1.465.213 1.201.783a.67.67 0 0 1 .208.906l-.731 1.214a.603.603 0 0 1 .056-.01l1.404-.41a.659.659 0 0 1 .188-.027z"/></g></g></svg>