<svg xmlns="http://www.w3.org/2000/svg" width="19" height="19" viewBox="0 0 19 19"><g><g><path fill="#9ba3af" d="M5.178.508h8.641C16.4.508 18.5 2.606 18.5 5.186v8.63c0 2.579-2.1 4.676-4.68 4.676H5.177A4.683 4.683 0 0 1 .5 13.815v-2.78h6.76c.418 0 .712.336.712.752V13.2c0 .182.387.299.651.035l3.128-3.222c.204-.226.226-.732-.023-1.005L8.65 5.789c-.256-.254-.68-.184-.68.007v1.453c0 .416-.293.717-.711.717-.015 0-6.38-.053-6.76-.05v-2.73A4.683 4.683 0 0 1 5.178.508zM5.09 1.92a3.225 3.225 0 0 0-3.222 3.222v1.372l4.665-.006v-.55c0-.987.683-1.704 1.664-1.704.584 0 1.18.256 1.554.668l2.973 3.066c.396.43.561.974.561 1.545 0 .57-.162 1.11-.537 1.519l-3.023 3.082c-.349.385-.94.637-1.523.637-.984 0-1.645-.715-1.645-1.7v-.641l-4.689.005v1.472a3.224 3.224 0 0 0 3.222 3.22h8.768a3.225 3.225 0 0 0 3.223-3.22V5.142A3.226 3.226 0 0 0 13.86 1.92z"/></g></g></svg>